HIERARCHY
ROOT Hips
{
	OFFSET -3.958830 18.904000 13.208200
	CHANNELS 6 Xposition Yposition Zposition Zrotation Yrotation Xrotation 
	JOINT LHipJoint
	{
		OFFSET 0.000000 0.000000 0.000000
		CHANNELS 3 Zrotation Yrotation Xrotation
		JOINT LeftUpLeg
		{
			OFFSET 1.800000 -1.400000 0.085000
			CHANNELS 3 Zrotation Yrotation Xrotation
			JOINT LeftLeg
			{
				OFFSET 2.215000 -6.000000 0.000000
				CHANNELS 3 Zrotation Yrotation Xrotation
				JOINT LeftFoot
				{
					OFFSET 2.500000 -6.900000 0.000000
					CHANNELS 3 Zrotation Yrotation Xrotation
					JOINT LeftToeBase
					{
						OFFSET 0.200000 -0.500000 1.950000
						CHANNELS 3 Zrotation Yrotation Xrotation
						End Site
						{
							OFFSET 0.000000 0.000000 0.000000
						}
					}
				}
			}
		}
	}
	JOINT RHipJoint
	{
		OFFSET 0.000000 0.000000 0.000000
		CHANNELS 3 Zrotation Yrotation Xrotation
		JOINT RightUpLeg
		{
			OFFSET -1.800000 -1.400000 0.085000
			CHANNELS 3 Zrotation Yrotation Xrotation
			JOINT RightLeg
			{
				OFFSET -2.215000 -6.000000 0.000000
				CHANNELS 3 Zrotation Yrotation Xrotation
				JOINT RightFoot
				{
					OFFSET -2.500000 -6.900000 0.000000
					CHANNELS 3 Zrotation Yrotation Xrotation
					JOINT RightToeBase
					{
						OFFSET -0.200000 -0.500000 1.950000
						CHANNELS 3 Zrotation Yrotation Xrotation
						End Site
						{
							OFFSET 0.000000 0.000000 0.000000
						}
					}
				}
			}
		}
	}
	JOINT LowerBack
	{
		OFFSET 0.000000 0.000000 0.000000
		CHANNELS 3 Zrotation Yrotation Xrotation
		JOINT Spine
		{
			OFFSET -0.087000 1.940000 -0.288900
			CHANNELS 3 Zrotation Yrotation Xrotation
			JOINT Spine1
			{
				OFFSET 0.000000 1.950000 0.060000
				CHANNELS 3 Zrotation Yrotation Xrotation
				JOINT Neck
				{
					OFFSET 0.000000 0.000000 0.000000
					CHANNELS 3 Zrotation Yrotation Xrotation
					JOINT Neck1
					{
						OFFSET 0.000000 1.600000 0.340000
						CHANNELS 3 Zrotation Yrotation Xrotation
						JOINT Head
						{
							OFFSET 0.000000 1.667000 -0.240000
							CHANNELS 3 Zrotation Yrotation Xrotation
							End Site
							{
								OFFSET 0.000000 0.000000 0.000000
							}
						}
					}
				}
				JOINT LeftShoulder
				{
					OFFSET 0.000000 0.000000 0.000000
					CHANNELS 3 Zrotation Yrotation Xrotation
					JOINT LeftArm
					{
						OFFSET 2.700000 1.550000 -0.730000
						CHANNELS 3 Zrotation Yrotation Xrotation
						JOINT LeftForeArm
						{
							OFFSET 5.450000 0.000000 0.000000
							CHANNELS 3 Zrotation Yrotation Xrotation
							JOINT LeftHand
							{
								OFFSET 3.450000 0.000000 0.000000
								CHANNELS 3 Zrotation Yrotation Xrotation
								JOINT LeftHandIndex1
								{
									OFFSET 0.750000 0.000000 0.000000
									CHANNELS 3 Zrotation Yrotation Xrotation
									End Site
									{
										OFFSET 0.000000 0.000000 0.000000
									}
								}
							}
						}
					}
				}
				JOINT RightShoulder
				{
					OFFSET 0.000000 0.000000 0.000000
					CHANNELS 3 Zrotation Yrotation Xrotation
					JOINT RightArm
					{
						OFFSET -2.700000 1.550000 -0.730000
						CHANNELS 3 Zrotation Yrotation Xrotation
						JOINT RightForeArm
						{
							OFFSET -5.450000 0.000000 0.000000
							CHANNELS 3 Zrotation Yrotation Xrotation
							JOINT RightHand
							{
								OFFSET -3.450000 0.000000 0.000000
								CHANNELS 3 Zrotation Yrotation Xrotation
								JOINT RightHandIndex1
								{
									OFFSET -0.750000 0.000000 0.000000
									CHANNELS 3 Zrotation Yrotation Xrotation
									End Site
									{
										OFFSET 0.000000 0.000000 0.000000
									}
								}
							}
						}
					}
				}
			}
		}
	}
}
MOTION
Frames: 6
Frame Time: 0.016667
0.299850 16.574790 -4.496850 10.659952 -6.086532 13.587234 -15.089177 12.858546 2.441772 17.851854 -1.356596 -26.123280 3.653208 4.148355 15.590043 -0.310226 3.311340 3.178843 0.230650 0.137800 0.399460 18.532159 -8.636475 5.280075 -33.307577 5.980309 -40.502785 32.040307 -16.202199 28.732967 -0.836920 -7.465910 1.511601 0.078530 -0.202190 0.136350 -3.996154 -2.981769 -8.714899 24.921479 -12.793577 28.415490 -8.913062 -4.744355 -10.768503 6.709802 -5.949539 -2.958956 -8.674686 6.218459 32.179171 -16.678230 10.851790 -12.999200 -22.522893 14.962395 -4.216375 -31.080638 23.426880 -4.822333 7.071161 16.932641 1.425488 -4.201714 2.490236 0.228110 -0.000340 0.149310 -0.079680 7.458926 -9.493786 0.882680 27.303341 7.331036 -3.062801 -103.251452 51.584051 -57.304659 2.085414 -0.969559 -0.009210 -0.041050 -0.062070 -0.227620 
0.300750 16.557980 -4.488590 10.361294 -6.474200 13.913377 -15.110132 12.898355 2.438795 17.961471 -1.278293 -25.460502 2.327135 4.512830 15.610175 -0.297192 3.431062 3.141790 0.236020 0.148170 0.380900 18.515478 -8.530350 5.321883 -33.252655 6.371618 -41.087887 32.252233 -16.243648 29.191909 -0.844604 -7.535288 1.494961 0.093940 -0.173510 0.138660 -3.939903 -3.171065 -8.708022 25.195994 -12.609867 28.243791 -7.524136 -4.338045 -11.877862 6.031739 -6.758362 -2.536338 -9.909128 7.131588 31.717838 -15.861830 11.311620 -12.175310 -22.365193 16.341490 -4.693568 -31.262129 24.778757 -5.010951 7.592287 16.157602 1.466035 -4.220099 2.500341 0.205690 0.018390 0.127990 -0.065030 8.510286 -9.787194 0.239429 25.988683 9.650032 -1.241447 -110.505988 45.289266 -58.119241 2.189982 -1.383732 -0.011310 -0.041190 -0.062270 -0.215740 
0.301980 16.528020 -4.477700 9.293595 -6.924851 15.091224 -15.236731 13.047104 2.586012 18.205255 -1.219348 -25.985059 0.618616 5.150798 16.251951 -0.245575 3.688236 3.064911 0.172220 0.072570 0.326930 18.394827 -8.179501 5.405216 -32.539148 7.463480 -42.466163 32.724782 -16.068314 29.647557 -0.831449 -7.537287 1.530429 0.052460 -0.112100 0.138070 -3.586091 -3.947458 -8.851531 25.098290 -11.903126 29.019673 -4.230828 -2.268031 -15.377998 5.397527 -6.796857 -2.466911 -9.916485 7.158162 31.559245 -15.300060 12.509140 -9.897750 -21.753446 18.254772 -5.387111 -32.960843 29.279156 -6.166047 11.819029 13.206054 2.091978 -4.301375 2.503767 0.181010 0.060160 0.084050 -0.059460 8.964251 -9.839793 -0.319568 24.880885 11.862622 0.432613 -118.279125 31.622160 -46.426086 2.268861 -1.872698 -0.035710 -0.045620 -0.037060 -0.206740 
0.304790 16.493450 -4.470280 7.906523 -7.107954 16.487428 -15.360807 13.097018 2.784013 18.679282 -1.238972 -26.770273 -1.998482 6.191317 17.759404 -0.181574 4.164305 2.915729 0.109890 -0.000960 0.266870 18.291001 -7.843377 5.466020 -31.510557 8.513602 -43.837720 33.133684 -15.813386 29.988071 -0.798051 -7.543505 1.559869 0.026240 -0.029550 0.145530 -3.271005 -4.577866 -9.004592 25.578257 -10.644615 29.274946 -0.761179 0.493512 -17.764247 4.493645 -6.511862 -2.750534 -9.706293 4.999326 30.672446 -14.724940 11.827340 -6.994430 -20.069364 19.397407 -5.761166 -31.192349 30.964417 -6.364250 12.815362 12.834333 2.072685 -4.413326 2.484760 0.119730 0.126750 0.014780 -0.048700 8.895347 -9.184691 -0.410673 21.217981 12.414224 1.498337 -127.269949 17.657282 -28.597906 2.333346 -2.252270 -0.058470 -0.050260 -0.011700 -0.186390 
0.301510 16.514800 -4.512020 6.635851 -7.650853 16.592513 -15.485909 13.322830 2.960525 18.441761 -1.283762 -27.031378 -4.143237 7.347540 20.350374 -0.093617 4.713552 2.731422 0.047820 -0.078730 0.224320 18.150301 -7.623451 5.420939 -29.526963 9.644868 -44.325038 31.890382 -15.152705 30.818997 -0.734479 -7.359870 1.648765 -0.020450 0.001740 0.133320 -2.896981 -5.347010 -9.120171 25.555828 -10.058576 31.242427 1.581928 2.824218 -18.747186 4.028825 -6.732774 -4.255395 -10.636689 2.896775 31.573303 -15.101290 10.544210 -5.006580 -18.256075 18.377512 -4.966593 -28.753154 29.548930 -5.980684 9.409834 17.678714 1.814113 -4.468973 2.404735 0.100610 0.140130 -0.016270 -0.051460 7.976117 -6.003067 0.320499 18.984011 13.297161 0.968676 -133.947216 7.169883 -9.771835 2.414023 -2.473749 -0.074550 -0.046430 0.009330 -0.172810 
0.296960 16.529690 -4.528640 5.724597 -7.648296 18.364150 -15.607783 13.311762 3.223502 17.352571 -1.884269 -29.154390 -6.061924 8.433956 23.229957 0.009840 5.180063 2.562160 0.012070 -0.127800 0.213080 18.058825 -7.322965 5.478702 -28.460529 10.127940 -46.111580 31.139662 -14.774829 31.141771 -0.704136 -7.200849 1.714072 -0.073380 -0.018770 0.144180 -2.606917 -5.901412 -9.312227 25.741510 -8.621804 32.305263 1.985693 6.497803 -21.791420 3.980150 -5.832953 -4.950055 -9.586728 -0.174510 31.936162 -16.035520 9.201670 -4.208220 -15.036816 19.056920 -5.183255 -25.799264 25.529313 -5.434019 11.559366 15.287823 1.852771 -4.485542 2.409002 0.094970 0.129180 -0.007950 -0.060350 4.653950 -5.560127 1.187471 21.313964 9.893896 -1.965971 -138.702147 -1.484939 11.461048 2.580058 -2.687552 -0.054630 -0.083060 0.008520 -0.165490 
